<svg xmlns="http://www.w3.org/2000/svg" width="120.603" height="36" viewBox="0 0 120.603 36">
  <g id="logo-white" transform="translate(-8 -10)">
    <g id="cube">
      <path id="cube-2" data-name="cube" d="M18,9.219,10.946,13.3,18,17.37l7.057-4.076L18,9.22ZM18.722,26.766Z" transform="translate(5.78 10)" fill="#ff6a00"/>
      <path id="cube-3" data-name="cube" d="M10.222,22.692l7.056,4.073v-8.15l-7.059-4.071v8.15Z" transform="translate(5.78 10)" fill="#ff6a00"/>
      <path id="cube-4" data-name="cube" d="M25.362,22.689l-6.641,4.077V18.619l6.641-3.832Z" transform="translate(5.78 10)" fill="#ff6a00"/>
    </g>
    <g id="arms">
      <path id="Icon_simple-nintendogamecube" data-name="Icon simple-nintendogamecube" d="M7.185,24.444l10.1,5.825V36L2.22,27.31V9.925L7.185,12.79V24.445ZM18,5.72l9.49,5.912,4.965-2.865L18,0,10.309,4.441l.041,5.7ZM28.812,24.444V18.522l-.025-5.711L33.78,9.93V27.312L18.72,36V30.279l10.092-5.832Z" transform="translate(5.78 10)" fill="#fff"/>
      <path id="Icon_simple-nintendogamecube-2" data-name="Icon simple-nintendogamecube" d="M7.1,6.3,2.96,8.685l4.214,2.43Z" transform="translate(5.78 10)" fill="#fff"/>
    </g>
    <path id="Path_159" data-name="Path 159" d="M10.175-6.675q0-3.6-2.65-3.6a4.4,4.4,0,0,0-1.138.15,3.237,3.237,0,0,0-.912.375v6.775q.275.05.7.088T7.1-2.85A2.676,2.676,0,0,0,9.4-3.9a4.564,4.564,0,0,0,.775-2.775Zm3.8.1a8.312,8.312,0,0,1-.462,2.85A6.017,6.017,0,0,1,12.175-1.55a5.878,5.878,0,0,1-2.15,1.388,8.077,8.077,0,0,1-2.9.488Q6.45.325,5.713.263T4.263.1Q3.55,0,2.9-.138T1.75-.425V-18.8l3.725-.6v6.55a6.979,6.979,0,0,1,1.3-.425,6.676,6.676,0,0,1,1.45-.15,5.936,5.936,0,0,1,2.475.487,4.847,4.847,0,0,1,1.8,1.388,6.232,6.232,0,0,1,1.1,2.162,9.86,9.86,0,0,1,.375,2.813Zm2.575.1a8.042,8.042,0,0,1,.538-3.063A6.566,6.566,0,0,1,18.5-11.725a5.876,5.876,0,0,1,2.013-1.325,6.3,6.3,0,0,1,2.337-.45,5.809,5.809,0,0,1,4.425,1.713A7.056,7.056,0,0,1,28.9-6.75q0,.325-.025.713t-.05.687h-8.45A2.475,2.475,0,0,0,21.45-3.525,4.321,4.321,0,0,0,24-2.85a10.765,10.765,0,0,0,2.013-.187A7.6,7.6,0,0,0,27.625-3.5l.5,3.025a5.144,5.144,0,0,1-.8.3,10.468,10.468,0,0,1-1.112.263Q25.6.2,24.9.275A13.132,13.132,0,0,1,23.5.35a8.287,8.287,0,0,1-3.087-.525,6.014,6.014,0,0,1-2.175-1.438,5.7,5.7,0,0,1-1.275-2.163,8.566,8.566,0,0,1-.413-2.7ZM25.3-7.9a3.845,3.845,0,0,0-.162-.925,2.31,2.31,0,0,0-.425-.8,2.263,2.263,0,0,0-.725-.575,2.362,2.362,0,0,0-1.087-.225,2.5,2.5,0,0,0-1.075.212,2.221,2.221,0,0,0-.75.563,2.517,2.517,0,0,0-.462.813,5.332,5.332,0,0,0-.238.938Zm6.8-4.8a20.762,20.762,0,0,1,2.45-.512,20.132,20.132,0,0,1,3.15-.238,7.672,7.672,0,0,1,2.788.438,4.187,4.187,0,0,1,1.762,1.237,4.822,4.822,0,0,1,.925,1.9,10.109,10.109,0,0,1,.275,2.45V0H39.725V-6.975a5.021,5.021,0,0,0-.475-2.55,1.938,1.938,0,0,0-1.775-.75q-.4,0-.85.037t-.8.088V0H32.1ZM52.175-2.6q.55,0,1.05-.025a7.3,7.3,0,0,0,.8-.075V-5.525q-.225-.05-.675-.1a7.517,7.517,0,0,0-.825-.05,7.383,7.383,0,0,0-.987.063,2.58,2.58,0,0,0-.812.238,1.394,1.394,0,0,0-.55.475,1.324,1.324,0,0,0-.2.75,1.278,1.278,0,0,0,.587,1.212,3.247,3.247,0,0,0,1.612.337Zm-.3-10.9a8.626,8.626,0,0,1,2.75.375,4.271,4.271,0,0,1,1.763,1.075,3.951,3.951,0,0,1,.938,1.7A8.385,8.385,0,0,1,57.6-8.125v7.75q-.8.175-2.225.413a21.38,21.38,0,0,1-3.45.238A10.938,10.938,0,0,1,49.613.05a5.019,5.019,0,0,1-1.788-.738,3.375,3.375,0,0,1-1.15-1.338,4.617,4.617,0,0,1-.4-2.025A3.837,3.837,0,0,1,46.738-6a3.559,3.559,0,0,1,1.237-1.275,5.592,5.592,0,0,1,1.775-.687,9.958,9.958,0,0,1,2.075-.213,11.78,11.78,0,0,1,1.288.063,5.731,5.731,0,0,1,.912.162V-8.3a2.061,2.061,0,0,0-.575-1.525,2.784,2.784,0,0,0-2-.575,12.735,12.735,0,0,0-1.875.137,8.043,8.043,0,0,0-1.6.388l-.475-3q.325-.1.813-.212t1.063-.2q.575-.087,1.213-.15T51.875-13.5ZM66.55.25A9.306,9.306,0,0,1,63.913-.1a3.907,3.907,0,0,1-1.6-.913,3.027,3.027,0,0,1-.8-1.425A7.689,7.689,0,0,1,61.3-4.325V-18.8l3.725-.6V-5.075a4.908,4.908,0,0,0,.075.9,1.553,1.553,0,0,0,.287.675A1.526,1.526,0,0,0,66-3.05a3.357,3.357,0,0,0,1.075.225ZM73.25,0H69.525V-13.15H73.25Zm.35-16.95a2.044,2.044,0,0,1-.662,1.612,2.278,2.278,0,0,1-1.562.588,2.278,2.278,0,0,1-1.562-.588,2.044,2.044,0,0,1-.662-1.612,2.044,2.044,0,0,1,.662-1.612,2.278,2.278,0,0,1,1.563-.588,2.278,2.278,0,0,1,1.563.588,2.044,2.044,0,0,1,.66,1.612Z" transform="translate(55 36)" fill="#fff"/>
  </g>
</svg>
