<?xml version="1.0" standalone="no"?>
<!DOCTYPE svg PUBLIC "-//W3C//DTD SVG 20010904//EN"
 "http://www.w3.org/TR/2001/REC-SVG-20010904/DTD/svg10.dtd">
<svg version="1.0" xmlns="http://www.w3.org/2000/svg"
 width="700.000000pt" height="700.000000pt" viewBox="0 0 700.000000 700.000000"
 preserveAspectRatio="xMidYMid meet">
<metadata>
Created by potrace 1.14, written by Peter Selinger 2001-2017
</metadata>
<g transform="translate(0.000000,700.000000) scale(0.100000,-0.100000)"
fill="#000000" stroke="none">
<path d="M2639 4550 c-249 -23 -497 -109 -705 -246 -122 -80 -320 -279 -402
-404 -156 -236 -245 -484 -282 -784 -27 -217 -8 -578 41 -786 73 -313 239
-600 449 -775 248 -206 527 -323 883 -370 139 -18 462 -20 623 -4 373 36 822
149 817 205 -2 31 -115 709 -118 712 -2 2 -36 -8 -77 -23 -98 -35 -281 -80
-420 -101 -166 -26 -560 -26 -678 0 -331 72 -547 270 -596 549 l-6 37 1035 0
1035 0 9 78 c16 150 8 504 -16 659 -58 387 -195 674 -423 888 -235 221 -515
336 -888 365 -139 11 -157 11 -281 0z m331 -770 c137 -40 256 -138 323 -268
38 -75 74 -201 79 -277 l3 -50 -603 -3 -602 -2 6 42 c22 146 91 305 169 395
141 161 399 228 625 163z"/>
<path d="M5204 2290 c-132 -18 -309 -113 -378 -205 -127 -166 -141 -472 -29
-662 37 -64 134 -148 216 -187 341 -164 747 5 828 344 7 30 13 102 13 160 -1
168 -44 284 -143 380 -137 132 -322 195 -507 170z"/>
</g>
</svg>
