<?xml version="1.0" standalone="no"?>
<!DOCTYPE svg PUBLIC "-//W3C//DTD SVG 20010904//EN"
 "http://www.w3.org/TR/2001/REC-SVG-20010904/DTD/svg10.dtd">
<svg version="1.0" xmlns="http://www.w3.org/2000/svg"
 width="736.000000pt" height="736.000000pt" viewBox="0 0 736.000000 736.000000"
 preserveAspectRatio="xMidYMid meet">
<metadata>
Created by potrace 1.14, written by Peter Selinger 2001-2017
</metadata>
<g transform="translate(0.000000,736.000000) scale(0.100000,-0.100000)"
fill="#000000" stroke="none">
<path d="M1298 7034 c-3 -3 -26 -7 -49 -8 -24 -2 -55 -6 -69 -9 -14 -4 -36 -9
-50 -11 -14 -3 -50 -12 -80 -21 -75 -22 -73 -21 -90 -28 -8 -3 -37 -13 -63
-23 -26 -9 -50 -21 -53 -25 -3 -5 -14 -9 -25 -9 -10 0 -19 -3 -19 -8 0 -4 -15
-13 -32 -21 -42 -18 -128 -72 -198 -124 -54 -40 -250 -230 -250 -242 0 -4 -7
-13 -15 -22 -61 -61 -209 -334 -232 -428 -1 -5 -9 -35 -18 -65 -9 -30 -18 -68
-21 -85 -3 -16 -7 -37 -10 -45 -3 -8 -9 -37 -12 -65 -10 -70 -9 -4147 1 -4220
16 -126 64 -308 93 -352 8 -13 12 -23 9 -23 -6 0 112 -227 125 -240 3 -3 25
-32 50 -65 193 -255 473 -444 780 -526 63 -17 84 -21 185 -36 59 -9 4789 -10
4855 -2 25 4 56 9 70 13 14 3 36 8 50 10 14 3 50 12 80 21 30 9 63 18 73 20
10 2 43 15 73 29 30 14 54 23 54 21 0 -3 23 9 50 25 28 17 53 30 56 30 11 0
150 94 213 144 90 73 211 203 269 291 15 22 30 42 34 45 4 3 34 57 66 121 79
154 127 307 150 474 9 68 9 4147 0 4210 -10 66 -17 105 -24 135 -3 14 -7 33
-9 42 -25 123 -193 468 -237 486 -4 2 -8 9 -8 15 0 21 -169 194 -258 265 -201
158 -400 246 -662 292 -100 18 -221 18 -2476 19 -1304 1 -2373 -2 -2376 -5z"/>
</g>
</svg>
