<svg xmlns="http://www.w3.org/2000/svg" width="30" height="30" viewBox="0 0 30 30">
  <g id="jquery" transform="translate(-90 -110)">
    <rect id="Rectangle_42" data-name="Rectangle 42" width="30" height="30" rx="4" transform="translate(90 110)" fill="#0868ac"/>
    <path id="jquery-2" data-name="jquery" d="M11.832,20.379c-.132-.03-.26-.071-.389-.109l-.1-.029q-.189-.058-.374-.122L10.92,20.1c-.111-.039-.221-.08-.33-.122l-.093-.036c-.12-.047-.239-.1-.356-.148l-.071-.032c-.1-.046-.2-.092-.3-.14l-.087-.042c-.078-.038-.155-.078-.233-.118-.052-.027-.1-.053-.155-.081-.094-.05-.187-.1-.279-.156l-.094-.053c-.122-.072-.243-.147-.363-.222l-.1-.065c-.087-.056-.173-.113-.258-.172l-.083-.058q-.123-.087-.244-.177L7.768,18.4c-.074-.057-.148-.113-.22-.172l-.1-.079c-.092-.076-.184-.153-.274-.231l-.03-.025c-.1-.086-.194-.174-.288-.262l-.081-.078c-.07-.067-.139-.134-.207-.2l-.081-.081q-.13-.133-.254-.269l-.012-.013c-.088-.1-.174-.194-.258-.293l-.067-.08q-.094-.113-.186-.23l-.068-.085c-.073-.095-.145-.189-.214-.286A8.948,8.948,0,0,1,4.344,6.745L2.973,8.483a8.331,8.331,0,0,0-.2,8.486c.032.064.065.127.1.191l.063.121.039.07.07.125q.063.11.128.219l.073.12c.048.078.1.155.149.232l.063.1c.07.1.141.208.215.311l.006.008.036.049c.064.088.13.175.2.261l.074.094q.089.112.181.223l.069.083c.082.1.167.194.252.288l.005.005.01.011c.084.092.17.181.257.27l.082.083c.067.068.136.134.2.2l.084.08c.092.087.186.172.281.256l0,0,.049.042c.084.073.169.145.255.215l.106.084q.105.085.213.166l.114.086q.118.087.239.171l.087.062.024.017c.076.052.154.1.232.153l.1.067c.119.075.24.15.363.222l.1.057q.135.078.272.153c.05.027.1.052.151.078s.129.068.195.1l.045.022.08.039c.1.049.2.1.309.143l.065.029q.179.078.36.15l.088.035c.112.043.226.086.34.126l.043.015c.125.044.252.084.379.124l.092.027a3.7,3.7,0,0,0,.391.11c8.489,1.548,10.955-5.1,10.955-5.1C18.991,20.46,15.315,21.172,11.832,20.379ZM8.774,13.5a4.458,4.458,0,0,0,.653.816c.092.1.187.2.285.3l.075.074c.095.092.191.182.291.27l.012.01,0,0c.11.1.224.19.34.281l.077.06c.116.089.234.176.355.26l.01.008c.053.037.108.071.162.107l.077.051c.087.056.174.11.264.162l.037.022c.077.044.155.088.233.13l.083.043c.054.028.108.057.163.084l.025.011c.112.055.225.108.34.158l.075.031c.092.039.185.077.279.113l.119.044c.085.032.17.06.256.089l.116.037a2.832,2.832,0,0,0,.37.107C20.027,17.851,21.54,12.8,21.54,12.8a6.226,6.226,0,0,1-6.824,2.17c-.125-.033-.249-.069-.371-.107l-.111-.036q-.131-.042-.26-.089l-.117-.044c-.094-.036-.187-.074-.279-.113l-.075-.032q-.174-.075-.342-.159c-.058-.028-.115-.058-.172-.087l-.1-.051c-.073-.039-.145-.081-.217-.123L12.62,14.1c-.089-.052-.176-.105-.263-.16l-.079-.053-.17-.113c-.121-.083-.238-.171-.354-.259l-.08-.063A7.9,7.9,0,0,1,9,9.641a5.92,5.92,0,0,1,.462-4.749L8.422,6.357a6.1,6.1,0,0,0-.21,6.2,8.017,8.017,0,0,0,.562.938Zm6.909-2.26c.054.02.108.038.163.056l.072.023a2.082,2.082,0,0,0,.233.067c3.619.7,4.6-1.857,4.862-2.234-.86,1.238-2.3,1.535-4.078,1.1-.14-.034-.294-.085-.429-.132a5.185,5.185,0,0,1-1.4-.756c-1.587-1.2-2.572-3.5-1.537-5.371l-.56.772a3.82,3.82,0,0,0-.3,3.685,5.191,5.191,0,0,0,2.98,2.784Z" transform="translate(93.286 111.003)" fill="#fff"/>
  </g>
</svg>
