<svg xmlns="http://www.w3.org/2000/svg" width="30" height="30" viewBox="0 0 30 30">
  <g id="laravel" transform="translate(0 0.018)">
    <rect id="Rectangle_10" data-name="Rectangle 10" width="30" height="30" rx="4" transform="translate(0 -0.018)" fill="#fb5b47"/>
    <path id="Path_18" data-name="Path 18" d="M95.548,136.75,93,134.195c-.363-.344-.485-.295-.727-.246l-3.09.393c-.3.049-.485.147-.3.344l2.241,2.556L84.4,138.569l-5.331-7.225c-.182-.246-.242-.344-.727-.344l-4.422.295c-.242,0-.545.1-.3.639l4.6,8.011a.988.988,0,0,0,1.151.442l4.6-.983,2.484,3.539c.363.442.606.344,1.212.246l7.148-2.113c.3-.1.485-.147.3-.393l-2.726-3,2.968-.639c.3-.049.3-.2.121-.295Zm-12.176,2.015-4,.786-.242-.049q-2.22-3.862-4.483-7.716l3.635-.295,5.089,7.225Zm10.6,1.622c.061.049.121.1-.061.147L87.43,142.3a.283.283,0,0,1-.363-.1l-2.181-3,6.542-1.376c.182-.049.182-.049.3.049Zm.363-3.784-2.484.492-2-2.163c-.061-.049-.121-.1.061-.147l2.423-.344c.121,0,.242-.049.363.1l1.878,1.917C94.639,136.554,94.518,136.6,94.336,136.6Z" transform="translate(-69.634 -122.213)" fill="#fff"/>
  </g>
</svg>
