<svg xmlns="http://www.w3.org/2000/svg" width="30" height="30" viewBox="0 0 30 30">
  <g id="XD" transform="translate(-90 -110)">
    <g id="Rectangle_42" data-name="Rectangle 42" transform="translate(90 110)" fill="#2e001f" stroke="#ff26be" stroke-width="1">
      <rect width="30" height="30" rx="4" stroke="none"/>
      <rect x="0.5" y="0.5" width="29" height="29" rx="3.5" fill="none"/>
    </g>
    <path id="Path_52" data-name="Path 52" d="M473.006,599.43l3.531,6.783c.063.1.025.2-.076.2h-2.194a.247.247,0,0,1-.265-.163c-.807-1.664-1.627-3.329-2.472-5.119H471.5c-.756,1.69-1.589,3.468-2.4,5.132a.243.243,0,0,1-.228.139H466.8c-.126,0-.139-.1-.075-.177l3.454-6.582-3.341-6.657a.1.1,0,0,1,.075-.177h2.169a.2.2,0,0,1,.226.139c.794,1.664,1.6,3.379,2.358,5.056h.025c.731-1.664,1.538-3.392,2.32-5.044.063-.1.1-.163.228-.163h2.03c.1,0,.139.076.076.177Zm4.149,2.055a4.932,4.932,0,0,1,5.056-5.233,5.576,5.576,0,0,1,.656.025v-3.341a.126.126,0,0,1,.126-.126h1.992c.1,0,.126.037.126.1v11.575a9.007,9.007,0,0,0,.063,1.236c0,.076-.025.1-.1.139a7.506,7.506,0,0,1-3.228.731c-2.737.011-4.691-1.678-4.69-5.108Zm5.711-3.227a1.9,1.9,0,0,0-.731-.126c-1.589,0-2.7,1.222-2.7,3.253,0,2.32,1.135,3.254,2.56,3.254a2.363,2.363,0,0,0,.87-.139v-6.242Z" transform="translate(-371.041 -475.128)" fill="#ffd9f2"/>
  </g>
</svg>
